<svg xmlns="http://www.w3.org/2000/svg" version="1.1" xmlns:xlink="http://www.w3.org/1999/xlink" xmlns:svgjs="http://svgjs.com/svgjs" width="1640" height="700" preserveAspectRatio="none" viewBox="0 0 1640 700"><g mask="url(&quot;#SvgjsMask1126&quot;)" fill="none"><rect width="1640" height="700" x="0" y="0" fill="rgba(237, 241, 247, 1)"></rect><path d="M0,654.005C119.867,643.618,214.002,551.407,300.866,468.157C375.416,396.709,410.591,300.52,462.169,211.065C520.049,110.679,627.688,26.27,622.389,-89.486C617.05,-206.12,526.788,-304.673,435.242,-377.139C352.157,-442.908,242.96,-453.436,138.7,-472.368C44.854,-489.409,-47.439,-497.746,-141.488,-481.864C-245.755,-464.257,-348.363,-438.292,-433.608,-375.724C-533.589,-302.34,-648.68,-218.56,-667.284,-95.941C-685.895,26.728,-585.61,131.305,-527.136,240.735C-472.458,343.059,-427.654,451.792,-336.351,523.372C-239.74,599.114,-122.304,664.603,0,654.005" fill="#dce4f0"></path><path d="M1640 1484.391C1784.5819999999999 1484.675 1907.807 1378.8690000000001 2011.59 1278.2060000000001 2102.565 1189.966 2146.15 1070.0729999999999 2189.827 951.098 2230.416 840.534 2270.413 728.318 2256.389 611.377 2242.172 492.825 2190.513 380.946 2110.792 292.057 2031.88 204.07100000000003 1927.778 137.356 1811.632 115.47500000000002 1700.878 94.60900000000004 1597.6970000000001 162.293 1485.634 174.279 1340.915 189.75799999999998 1154.055 86.34500000000003 1058.399 196.04000000000002 962.857 305.605 1097.219 476.348 1095.47 621.708 1094.0320000000002 741.196 1018.428 854.364 1049.086 969.861 1082.059 1094.078 1172.422 1192.3519999999999 1269.347 1276.748 1378.358 1371.6680000000001 1495.455 1484.107 1640 1484.391" fill="#fefefe"></path></g><defs><mask id="SvgjsMask1126"><rect width="1640" height="700" fill="#ffffff"></rect></mask></defs></svg>